<svg width="166" height="64" viewBox="0 0 166 64" fill="none" xmlns="http://www.w3.org/2000/svg">
<rect x="0.5" width="165" height="64" rx="8" fill="#1EAAF1"/>
<path d="M24.94 41V26.1H27.54L33.12 33.68H31.88L37.34 26.1H39.94V41H37.2V29.2L38.26 29.46L32.6 37H32.28L26.76 29.46L27.66 29.2V41H24.94ZM47.8916 41.24C46.8249 41.24 45.8516 40.9933 44.9716 40.5C44.1049 40.0067 43.4116 39.3333 42.8916 38.48C42.3849 37.6267 42.1316 36.6533 42.1316 35.56C42.1316 34.4667 42.3849 33.4933 42.8916 32.64C43.4116 31.7867 44.1049 31.1133 44.9716 30.62C45.8382 30.1267 46.8116 29.88 47.8916 29.88C48.9582 29.88 49.9249 30.1267 50.7916 30.62C51.6582 31.1133 52.3449 31.7867 52.8516 32.64C53.3716 33.48 53.6316 34.4533 53.6316 35.56C53.6316 36.6533 53.3716 37.6267 52.8516 38.48C52.3316 39.3333 51.6382 40.0067 50.7716 40.5C49.9049 40.9933 48.9449 41.24 47.8916 41.24ZM47.8916 38.84C48.4782 38.84 48.9916 38.7 49.4316 38.42C49.8849 38.14 50.2382 37.7533 50.4916 37.26C50.7582 36.7533 50.8916 36.1867 50.8916 35.56C50.8916 34.92 50.7582 34.36 50.4916 33.88C50.2382 33.3867 49.8849 33 49.4316 32.72C48.9916 32.4267 48.4782 32.28 47.8916 32.28C47.2916 32.28 46.7649 32.4267 46.3116 32.72C45.8582 33 45.4982 33.3867 45.2316 33.88C44.9782 34.36 44.8516 34.92 44.8516 35.56C44.8516 36.1867 44.9782 36.7533 45.2316 37.26C45.4982 37.7533 45.8582 38.14 46.3116 38.42C46.7649 38.7 47.2916 38.84 47.8916 38.84ZM55.6184 41V30.12H58.0784V32.54L57.8784 32.18C58.1318 31.3667 58.5251 30.8 59.0584 30.48C59.6051 30.16 60.2584 30 61.0184 30H61.6584V32.32H60.7184C59.9718 32.32 59.3718 32.5533 58.9184 33.02C58.4651 33.4733 58.2384 34.1133 58.2384 34.94V41H55.6184ZM68.2589 41.24C67.1389 41.24 66.1589 40.9867 65.3189 40.48C64.4789 39.9733 63.8256 39.2867 63.3589 38.42C62.8922 37.5533 62.6589 36.5933 62.6589 35.54C62.6589 34.4467 62.8922 33.48 63.3589 32.64C63.8389 31.7867 64.4856 31.1133 65.2989 30.62C66.1256 30.1267 67.0456 29.88 68.0589 29.88C68.9122 29.88 69.6589 30.02 70.2989 30.3C70.9522 30.58 71.5056 30.9667 71.9589 31.46C72.4122 31.9533 72.7589 32.52 72.9989 33.16C73.2389 33.7867 73.3589 34.4667 73.3589 35.2C73.3589 35.3867 73.3456 35.58 73.3189 35.78C73.3056 35.98 73.2722 36.1533 73.2189 36.3H64.8189V34.3H71.7389L70.4989 35.24C70.6189 34.6267 70.5856 34.08 70.3989 33.6C70.2256 33.12 69.9322 32.74 69.5189 32.46C69.1189 32.18 68.6322 32.04 68.0589 32.04C67.5122 32.04 67.0256 32.18 66.5989 32.46C66.1722 32.7267 65.8456 33.1267 65.6189 33.66C65.4056 34.18 65.3256 34.8133 65.3789 35.56C65.3256 36.2267 65.4122 36.82 65.6389 37.34C65.8789 37.8467 66.2256 38.24 66.6789 38.52C67.1456 38.8 67.6789 38.94 68.2789 38.94C68.8789 38.94 69.3856 38.8133 69.7989 38.56C70.2256 38.3067 70.5589 37.9667 70.7989 37.54L72.9189 38.58C72.7056 39.1 72.3722 39.56 71.9189 39.96C71.4656 40.36 70.9256 40.6733 70.2989 40.9C69.6856 41.1267 69.0056 41.24 68.2589 41.24ZM77.8997 41L83.0397 26.1H86.5597L91.6997 41H88.7397L87.6797 37.8H81.9197L80.8397 41H77.8997ZM82.6997 35.4H86.8997L84.4197 27.98H85.1797L82.6997 35.4ZM93.138 41V30.12H95.598V32.54L95.398 32.18C95.6513 31.3667 96.0446 30.8 96.578 30.48C97.1246 30.16 97.778 30 98.538 30H99.178V32.32H98.238C97.4913 32.32 96.8913 32.5533 96.438 33.02C95.9846 33.4733 95.758 34.1133 95.758 34.94V41H93.138ZM105.871 41.12C104.645 41.12 103.691 40.7867 103.011 40.12C102.345 39.44 102.011 38.4867 102.011 37.26V32.46H100.131V30.12H100.331C100.865 30.12 101.278 29.98 101.571 29.7C101.865 29.42 102.011 29.0133 102.011 28.48V27.64H104.631V30.12H107.131V32.46H104.631V37.12C104.631 37.48 104.691 37.7867 104.811 38.04C104.945 38.2933 105.145 38.4867 105.411 38.62C105.691 38.7533 106.045 38.82 106.471 38.82C106.565 38.82 106.671 38.8133 106.791 38.8C106.925 38.7867 107.051 38.7733 107.171 38.76V41C106.985 41.0267 106.771 41.0533 106.531 41.08C106.291 41.1067 106.071 41.12 105.871 41.12ZM109.173 41V30.12H111.793V41H109.173ZM109.173 28.9V26.1H111.793V28.9H109.173ZM119.452 41.24C118.372 41.24 117.399 40.9933 116.532 40.5C115.679 39.9933 115.006 39.3133 114.512 38.46C114.019 37.5933 113.772 36.62 113.772 35.54C113.772 34.46 114.019 33.4933 114.512 32.64C115.006 31.7867 115.679 31.1133 116.532 30.62C117.399 30.1267 118.372 29.88 119.452 29.88C120.226 29.88 120.946 30.02 121.612 30.3C122.279 30.5667 122.852 30.94 123.332 31.42C123.826 31.8867 124.179 32.4467 124.392 33.1L122.092 34.1C121.892 33.5533 121.552 33.1133 121.072 32.78C120.606 32.4467 120.066 32.28 119.452 32.28C118.879 32.28 118.366 32.42 117.912 32.7C117.472 32.98 117.126 33.3667 116.872 33.86C116.619 34.3533 116.492 34.92 116.492 35.56C116.492 36.2 116.619 36.7667 116.872 37.26C117.126 37.7533 117.472 38.14 117.912 38.42C118.366 38.7 118.879 38.84 119.452 38.84C120.079 38.84 120.626 38.6733 121.092 38.34C121.559 38.0067 121.892 37.56 122.092 37L124.392 38.04C124.179 38.6533 123.832 39.2067 123.352 39.7C122.872 40.18 122.299 40.56 121.632 40.84C120.966 41.1067 120.239 41.24 119.452 41.24ZM126.38 41V25.86H129V41H126.38ZM136.579 41.24C135.459 41.24 134.479 40.9867 133.639 40.48C132.799 39.9733 132.146 39.2867 131.679 38.42C131.213 37.5533 130.979 36.5933 130.979 35.54C130.979 34.4467 131.213 33.48 131.679 32.64C132.159 31.7867 132.806 31.1133 133.619 30.62C134.446 30.1267 135.366 29.88 136.379 29.88C137.233 29.88 137.979 30.02 138.619 30.3C139.273 30.58 139.826 30.9667 140.279 31.46C140.733 31.9533 141.079 32.52 141.319 33.16C141.559 33.7867 141.679 34.4667 141.679 35.2C141.679 35.3867 141.666 35.58 141.639 35.78C141.626 35.98 141.593 36.1533 141.539 36.3H133.139V34.3H140.059L138.819 35.24C138.939 34.6267 138.906 34.08 138.719 33.6C138.546 33.12 138.253 32.74 137.839 32.46C137.439 32.18 136.953 32.04 136.379 32.04C135.833 32.04 135.346 32.18 134.919 32.46C134.493 32.7267 134.166 33.1267 133.939 33.66C133.726 34.18 133.646 34.8133 133.699 35.56C133.646 36.2267 133.733 36.82 133.959 37.34C134.199 37.8467 134.546 38.24 134.999 38.52C135.466 38.8 135.999 38.94 136.599 38.94C137.199 38.94 137.706 38.8133 138.119 38.56C138.546 38.3067 138.879 37.9667 139.119 37.54L141.239 38.58C141.026 39.1 140.693 39.56 140.239 39.96C139.786 40.36 139.246 40.6733 138.619 40.9C138.006 41.1267 137.326 41.24 136.579 41.24Z" fill="#FFFFFE"/>
</svg>
