<svg width="33" height="37" viewBox="0 0 33 37" fill="none" xmlns="http://www.w3.org/2000/svg">
<g id="Frame 291">
<path id="Vector" d="M16.4798 37L3.00326 33.3013L0 0H33L29.9936 33.2962L16.4798 37Z" fill="#264DE4"/>
<path id="Vector_2" d="M27.4198 31.1759L29.9888 2.72278H16.5V34.1688L27.4198 31.1759Z" fill="#2965F1"/>
<path id="Vector_3" d="M6.88483 15.0739L7.25505 19.1581H16.5V15.0739H6.88483ZM6.14078 6.80725L6.5163 10.8915H16.5V6.80725H6.14078ZM16.5 25.6812L16.4819 25.6859L11.8809 24.4577L11.5868 21.2003H7.43964L8.01838 27.6133L16.481 29.9357L16.5 29.9306V25.6812Z" fill="#EBEBEB"/>
<path id="Vector_4" d="M26.0887 15.0739L26.8345 6.80725H16.4858V10.8915H22.307L21.9311 15.0739H16.4858V19.1581H21.5729L21.0933 24.4552L16.4856 25.6846V29.9338L24.9549 27.6133L25.017 26.9232L25.988 16.1706L26.0887 15.0739Z" fill="white"/>
</g>
</svg>
