<svg id="eGhElJ2wCk31" xmlns="http://www.w3.org/2000/svg" xmlns:xlink="http://www.w3.org/1999/xlink" viewBox="0 0 60 60" shape-rendering="geometricPrecision" text-rendering="geometricPrecision"><rect width="60" height="60" rx="7.45763" ry="7.45763" fill="#fffffe"/><path d="M15.000345,48.486476l5.80431-3.575364c1.119828,2.020828,2.138448,3.73068,4.582069,3.73068c2.342069,0,3.819138-.932412,3.819138-4.559548v-24.667208h7.127759v24.76972c0,7.513992-4.327586,10.934384-10.641552,10.934384-5.702069,0-9.011897-3.0057-10.692069-6.63318l.000345.000516Zm25.204828-.77744l5.803621-3.420048c1.528103,2.53958,3.513793,4.405092,7.026552,4.405092c2.953621,0,4.836897-1.503108,4.836897-3.576052c0-2.487292-1.934828-3.368448-5.193276-4.818924l-1.781724-.778128c-5.142586-2.227572-8.553793-5.026012-8.553793-10.933696C42.343448,23.145888,46.416552,19,52.781034,19c4.531552,0,7.79,1.606652,10.131897,5.80414l-5.55,3.627824c-1.222241-2.22826-2.545517-3.109072-4.582069-3.109072-2.087759,0-3.411552,1.347276-3.411552,3.109072c0,2.176316,1.323793,3.057816,4.378621,4.405264l1.781897.777096C61.588793,36.25762,65,38.952,65,45.014656C65,51.544636,59.959483,55.12,53.187931,55.12c-6.618793,0-10.89569-3.212788-12.983103-7.41062" transform="translate(-10-7.06)" fill="#2b2c34"/></svg>
