<svg width="39" height="39" viewBox="0 0 39 39" fill="none" xmlns="http://www.w3.org/2000/svg">
<g clip-path="url(#clip0_520_8946)">
<path d="M19.5 0C8.73209 0 0 8.73209 0 19.5C0 30.2679 8.73209 39 19.5 39C30.2679 39 39 30.2679 39 19.5C39 8.73209 30.2679 0 19.5 0ZM13.8335 29.4785H9.08439V15.1906H13.8335V29.4785ZM11.4591 13.2396H11.4282C9.8345 13.2396 8.8038 12.1426 8.8038 10.7715C8.8038 9.36944 9.86604 8.30273 11.4906 8.30273C13.1152 8.30273 14.115 9.36944 14.146 10.7715C14.146 12.1426 13.1152 13.2396 11.4591 13.2396ZM30.9579 29.4785H26.2094V21.8348C26.2094 19.9139 25.5217 18.6038 23.8034 18.6038C22.4915 18.6038 21.7102 19.4875 21.3668 20.3406C21.2412 20.6459 21.2106 21.0725 21.2106 21.4995V29.4785H16.4618C16.4618 29.4785 16.5239 16.5311 16.4618 15.1906H21.2106V17.2137C21.8417 16.2401 22.9709 14.8553 25.4905 14.8553C28.615 14.8553 30.9579 16.8974 30.9579 21.2859V29.4785Z" fill="#717171"/>
</g>
<defs>
<clipPath id="clip0_520_8946">
<rect width="39" height="39" fill="white"/>
</clipPath>
</defs>
</svg>
