<svg id="e0VjAXh7g8Q1" xmlns="http://www.w3.org/2000/svg" xmlns:xlink="http://www.w3.org/1999/xlink" viewBox="0 0 143 66" shape-rendering="geometricPrecision" text-rendering="geometricPrecision"><g clip-path="url(#e0VjAXh7g8Q10)"><g><path d="M79.0237,0c.3924,0,1.1982.007663,1.1982.007663l.7634.046486l1.0683.102167l1.8091.278916.2594.038824c0,0,1.188.143545,1.7022.363715.4395.187989.9158.211999,1.3814.363719.8422.27483,1.6685.53791,2.4733.83623c1.2044.44699,2.3156.98541,3.4121,1.57185.4497.24111,1.0278.70035,1.4499.89089.4605.20791,1.0448.28658,1.626.37138c1.2965.18901,2.6912-.06436,4.137.10217c2.857.32591,5.303.8296,6.754,2.55418.771.91644,1.597,2.29519.976,3.99521-1.173,3.2127-5.52,2.7739-7.945,1.084-.8885-.6186-1.5777-1.4814-2.3743-2.1966-1.7078-1.54115-3.5676-3.15284-5.6101-4.24348-1.0928-.58337-2.2343-1.04364-3.343-1.56367-.6549-.3065-1.3425-.37853-1.9616-.6508-.6651-.29271-1.4735-.27432-2.1524-.57265-.2446-.03371-.7404-.13179-.7404-.13179l-1.1767-.22477c0,0-.4354-.05824-.878-.14712-.7987-.23243-3.9396-.15734-3.9396-.15325h-1.1675l-1.7396.15325-1.4423.20944-1.0842.20893-2.4169.62322c0,0-2.9394,1.02167-4.3203,1.73684-2.7372,1.40736-5.1874,3.21827-7.6024,4.98625l-3.8009,2.78c-.1816.1333-1.0744.8081-1.4505.3949-.2364-.2595.5398-1.2357.6411-1.3793.8365-1.1749,1.8419-2.3033,2.8651-3.29846l.5802-.57315.5265-.5185c.2768-.25542.9005-.73561.9005-.73561l.4876-.46588c0,0,.9521-.76625,1.4326-1.09165c1.0616-.71824,2.1007-1.43035,3.2514-2.04335c1.163-.62066,2.3346-1.18718,3.6106-1.67248.8605-.32061,1.7369-.59699,2.6257-.82806c0,0,2.2609-.607895,2.374-.63497s4.5224-.57469,4.5224-.57469c-.0118.014303.662,0,2.3177,0ZM96.0069,5.64474l-.0461.04648c-.0199.26002,1.5411,1.4237,1.8322,1.65664l5.175,4.23584c.59.378,1.778.8281,2.297.046.717-1.0799-.498-2.33249-.969-2.80961-1.792-1.81857-5.3375-2.57052-8.2891-3.17535Z" clip-rule="evenodd" fill="#0b97f9" fill-rule="evenodd"/><path d="M13.149,52.82c-2.4899,0-4.70702-.4257-6.65123-1.2771s-3.47912-2.0093-4.60472-3.4736C0.767453,46.5708,0.136436,44.9021,0,43.0631h8.64664c.10232.9876.56279,1.7879,1.38146,2.4009s1.8248.9195,3.0186.9195c1.0915,0,1.9272-.2043,2.507-.613.614-.4427.921-1.0047.921-1.6858c0-.8173-.4264-1.4133-1.2791-1.7879-.8528-.4087-2.2342-.8514-4.1443-1.3282-2.04652-.4767-3.75197-.9706-5.11633-1.4814-1.35973-.5416-2.57011-1.3998-3.53028-2.5031-.98917-1.1579-1.483747-2.7074-1.483747-4.6486c0-1.6347.443417-3.1161,1.330247-4.4443.92095-1.3622,2.2512-2.4349,3.99076-3.2182c1.77367-.7833,3.87135-1.175,6.29315-1.175c3.5814,0,6.3954.8855,8.4419,2.6564c2.0807,1.7709,3.2745,4.1207,3.5815,7.0495h-8.0838c-.1365-.9876-.5799-1.7709-1.3303-2.3498-.7163-.579-1.6713-.8684-2.8652-.8684-1.0232,0-1.8077.2043-2.35348.613-.54574.3746-.81861.9024-.81861,1.5836c0,.8173.42636,1.4303,1.27909,1.839.8868.4086,2.2512.8173,4.0931,1.226c2.1147.5449,3.8372,1.0898,5.1675,1.6346c1.3302.5109,2.4899,1.3623,3.4791,2.5542c1.0233,1.1579,1.552,2.7245,1.5861,4.6997c0,1.6687-.4775,3.1672-1.4326,4.4954-.9209,1.2941-2.2682,2.3158-4.0419,3.065-1.7396.7492-3.7691,1.1238-6.0885,1.1238Z"/><path d="M28.3242,38.108c0-2.9288.5458-5.5,1.6373-7.7137c1.1255-2.2136,2.6434-3.9164,4.5535-5.1083s4.0419-1.788,6.3954-1.788c2.0125,0,3.7691.4087,5.2699,1.2261c1.5349.8173,2.7117,1.89,3.5303,3.2182v-4.0356h8.7489v28.5047h-8.7489v-4.0356c-.8528,1.3281-2.0466,2.4009-3.5815,3.2182-1.5008.8174-3.2574,1.226-5.2698,1.226-2.3194,0-4.4342-.5959-6.3443-1.7879-1.9101-1.226-3.428-2.9458-4.5535-5.1594-1.0919-2.2477-1.6376-4.836-1.6373-7.7647Zm21.3864.051c0-2.1795-.614-3.8993-1.8419-5.1594-1.1938-1.2601-2.6605-1.8901-4.4001-1.8901s-3.2233.63-4.4512,1.8901c-1.1938,1.226-1.7907,2.9288-1.7907,5.1084s.5969,3.9164,1.7907,5.2105c1.2279,1.26,2.7117,1.8901,4.4512,1.8901s3.2063-.6301,4.4001-1.8901c1.2279-1.2601,1.8419-2.9799,1.8419-5.1595Z"/><path d="M63.0508,38.1078c0-2.9288.5457-5.5,1.6372-7.7136c1.1256-2.2136,2.6435-3.9164,4.5536-5.1084c1.9101-1.1919,4.0419-1.7879,6.3954-1.7879c1.876,0,3.5815.3917,5.1164,1.1749c1.569.7833,2.7969,1.8391,3.6837,3.1672v-13.2306h8.749v37.8018h-8.749v-4.0867c-.8186,1.3623-1.9953,2.4521-3.5302,3.2694-1.5008.8173-3.2575,1.226-5.2699,1.226-2.3535,0-4.4853-.596-6.3954-1.7879-1.9101-1.226-3.428-2.9458-4.5536-5.1595-1.0911-2.2476-1.6369-4.8359-1.6372-7.7647Zm21.3863.0511c0-2.1796-.6139-3.8994-1.8419-5.1594-1.1938-1.2601-2.6605-1.8901-4.4-1.8901s-3.2233.63-4.4512,1.8901c-1.1939,1.226-1.7908,2.9288-1.7908,5.1083c0,2.1796.5969,3.9164,1.7908,5.2106c1.2279,1.26,2.7116,1.89,4.4512,1.89s3.2062-.63,4.4-1.89c1.228-1.2601,1.8419-2.9799,1.8419-5.1595Z"/><path d="M108.263,23.9062v28.5047h-8.7493v-28.5047h8.7493Z"/><path d="M112.867,38.2115c0-2.8267.58-5.3468,1.74-7.5604c1.194-2.2136,2.78-3.9334,4.758-5.1594c2.012-1.2601,4.195-1.8901,6.549-1.8901c1.808,0,3.428.3235,4.86.9706c1.433.613,2.593,1.4814,3.48,2.6052v-3.2693h8.749v42.0928h-8.749v-17.164c-.997,1.1976-2.234,2.1723-3.633,2.8606-1.399.7152-3.002,1.0728-4.809,1.0728-2.32,0-4.469-.613-6.447-1.839s-3.564-2.9458-4.758-5.1595c-1.16-2.2136-1.74-4.7337-1.74-7.5603Zm21.387-.0511c0-1.5325-.307-2.8096-.921-3.8313-.58-1.0557-1.348-1.839-2.303-2.3498-.916-.5345-1.957-.8166-3.018-.8174-1.024,0-2.013.2725-2.968.8174-.955.5108-1.739,1.2941-2.353,2.3498s-.921,2.3499-.921,3.8824.307,2.8266.921,3.8823c.614,1.0217,1.398,1.805,2.353,2.3499.955.5108,1.944.7662,2.968.7662c1.023,0,2.012-.2554,2.967-.7662.989-.5449,1.774-1.3452,2.354-2.401.614-1.0557.921-2.3498.921-3.8823Z"/></g><clipPath id="e0VjAXh7g8Q10"><rect width="143" height="66" rx="0" ry="0" fill="#fff"/></clipPath></g></svg>
