<svg width="143" height="66" viewBox="0 0 143 66" fill="none" xmlns="http://www.w3.org/2000/svg">
<g id="Layer_1" clip-path="url(#clip0_23_92)">
<path id="Vector" fill-rule="evenodd" clip-rule="evenodd" d="M79.0237 0C79.4161 0 80.2219 0.00766254 80.2219 0.00766254L80.9853 0.0541486L82.0536 0.156316L83.8627 0.435232L84.1221 0.474056C84.1221 0.474056 85.3101 0.617601 85.8243 0.837771C86.2638 1.02576 86.7401 1.04977 87.2057 1.20149C88.0479 1.47632 88.8742 1.7394 89.679 2.03772C90.8834 2.48471 91.9946 3.02313 93.0911 3.60957C93.5408 3.85068 94.1189 4.30992 94.541 4.50046C95.0015 4.70837 95.5858 4.78704 96.167 4.87184C97.4635 5.06085 98.8582 4.80748 100.304 4.97401C103.161 5.29992 105.607 5.80361 107.058 7.52819C107.829 8.44463 108.655 9.82338 108.034 11.5234C106.861 14.7361 102.514 14.2973 100.089 12.6074C99.2005 11.9888 98.5113 11.126 97.7147 10.4108C96.0069 8.86965 94.1471 7.25796 92.1046 6.16732C91.0118 5.58395 89.8703 5.12368 88.7616 4.60365C88.1067 4.29715 87.4191 4.22512 86.8 3.95285C86.1349 3.66014 85.3265 3.67853 84.6476 3.3802C84.403 3.34649 83.9072 3.24841 83.9072 3.24841L82.7305 3.02364C82.7305 3.02364 82.2951 2.9654 81.8525 2.87652C81.0538 2.64409 77.9129 2.71918 77.9129 2.72327H76.7454L75.0058 2.87652L73.5635 3.08596L72.4793 3.29489L70.0624 3.91811C70.0624 3.91811 67.123 4.93978 65.7421 5.65495C63.0049 7.06231 60.5547 8.87322 58.1397 10.6412L54.3388 13.4212C54.1572 13.5545 53.2644 14.2293 52.8883 13.8161C52.6519 13.5566 53.4281 12.5804 53.5294 12.4368C54.3659 11.2619 55.3713 10.1335 56.3945 9.13834L56.9747 8.56519L57.5012 8.04669C57.778 7.79127 58.4017 7.31108 58.4017 7.31108L58.8893 6.8452C58.8893 6.8452 59.8414 6.07895 60.3219 5.75355C61.3835 5.03531 62.4226 4.3232 63.5733 3.7102C64.7363 3.08954 65.9079 2.52302 67.1839 2.03772C68.0444 1.71711 68.9208 1.44073 69.8096 1.20966C69.8096 1.20966 72.0705 0.601765 72.1836 0.57469C72.2967 0.547616 76.706 0 76.706 0C76.6942 0.0143034 77.368 0 79.0237 0ZM96.0069 5.64474L95.9608 5.69122C95.9409 5.95124 97.5019 7.11492 97.793 7.34786L102.968 11.5837C103.558 11.9617 104.746 12.4118 105.265 11.6297C105.982 10.5498 104.767 9.29721 104.296 8.82009C102.504 7.00152 98.9585 6.24957 96.0069 5.64474Z" fill="#0B97F9"/>
<path id="Vector_2" d="M13.149 52.82C10.6591 52.82 8.44198 52.3943 6.49777 51.5429C4.55355 50.6915 3.01865 49.5336 1.89305 48.0693C0.767453 46.5708 0.136436 44.9021 0 43.0631H8.64664C8.74896 44.0507 9.20943 44.851 10.0281 45.464C10.8467 46.077 11.8529 46.3835 13.0467 46.3835C14.1382 46.3835 14.9739 46.1792 15.5537 45.7705C16.1677 45.3278 16.4747 44.7658 16.4747 44.0847C16.4747 43.2674 16.0483 42.6714 15.1956 42.2968C14.3428 41.8881 12.9614 41.4454 11.0513 40.9686C9.00478 40.4919 7.29933 39.998 5.93497 39.4872C4.57524 38.9456 3.36486 38.0874 2.40469 36.9841C1.41552 35.8262 0.920943 34.2767 0.920943 32.3355C0.920943 30.7008 1.36436 29.2194 2.25119 27.8912C3.17214 26.529 4.50239 25.4563 6.24195 24.673C8.01562 23.8897 10.1133 23.498 12.5351 23.498C16.1165 23.498 18.9305 24.3835 20.977 26.1544C23.0577 27.9253 24.2515 30.2751 24.5585 33.2039H16.4747C16.3382 32.2163 15.8948 31.433 15.1444 30.8541C14.4281 30.2751 13.4731 29.9857 12.2792 29.9857C11.256 29.9857 10.4715 30.19 9.92572 30.5987C9.37998 30.9733 9.10711 31.5011 9.10711 32.1823C9.10711 32.9996 9.53347 33.6126 10.3862 34.0213C11.273 34.4299 12.6374 34.8386 14.4793 35.2473C16.594 35.7922 18.3165 36.3371 19.6468 36.8819C20.977 37.3928 22.1367 38.2442 23.1259 39.4361C24.1492 40.594 24.6779 42.1606 24.712 44.1358C24.712 45.8045 24.2345 47.303 23.2794 48.6312C22.3585 49.9253 21.0112 50.947 19.2375 51.6962C17.4979 52.4454 15.4684 52.82 13.149 52.82Z" fill="white"/>
<path id="Vector_3" d="M28.3242 38.108C28.3242 35.1792 28.87 32.608 29.9615 30.3943C31.087 28.1807 32.6049 26.4779 34.515 25.286C36.4251 24.094 38.5569 23.498 40.9104 23.498C42.9229 23.498 44.6795 23.9067 46.1803 24.7241C47.7152 25.5414 48.892 26.6141 49.7106 27.9423V23.9067H58.4595V52.4114H49.7106V48.3758C48.8578 49.7039 47.664 50.7767 46.1291 51.594C44.6283 52.4114 42.8717 52.82 40.8593 52.82C38.5399 52.82 36.4251 52.2241 34.515 51.0321C32.6049 49.8061 31.087 48.0863 29.9615 45.8727C28.8696 43.625 28.3239 41.0367 28.3242 38.108ZM49.7106 38.159C49.7106 35.9795 49.0966 34.2597 47.8687 32.9996C46.6749 31.7395 45.2082 31.1095 43.4686 31.1095C41.7291 31.1095 40.2453 31.7395 39.0174 32.9996C37.8236 34.2256 37.2267 35.9284 37.2267 38.108C37.2267 40.2875 37.8236 42.0244 39.0174 43.3185C40.2453 44.5785 41.7291 45.2086 43.4686 45.2086C45.2082 45.2086 46.6749 44.5785 47.8687 43.3185C49.0966 42.0584 49.7106 40.3386 49.7106 38.159Z" fill="white"/>
<path id="Vector_4" d="M63.0508 38.1078C63.0508 35.179 63.5965 32.6078 64.688 30.3942C65.8136 28.1806 67.3315 26.4778 69.2416 25.2858C71.1517 24.0939 73.2835 23.4979 75.637 23.4979C77.513 23.4979 79.2185 23.8896 80.7534 24.6728C82.3224 25.4561 83.5503 26.5119 84.4371 27.84V14.6094H93.1861V52.4112H84.4371V48.3245C83.6185 49.6868 82.4418 50.7766 80.9069 51.5939C79.4061 52.4112 77.6494 52.8199 75.637 52.8199C73.2835 52.8199 71.1517 52.2239 69.2416 51.032C67.3315 49.806 65.8136 48.0862 64.688 45.8725C63.5969 43.6249 63.0511 41.0366 63.0508 38.1078ZM84.4371 38.1589C84.4371 35.9793 83.8232 34.2595 82.5952 32.9995C81.4014 31.7394 79.9347 31.1094 78.1952 31.1094C76.4556 31.1094 74.9719 31.7394 73.744 32.9995C72.5501 34.2255 71.9532 35.9283 71.9532 38.1078C71.9532 40.2874 72.5501 42.0242 73.744 43.3184C74.9719 44.5784 76.4556 45.2084 78.1952 45.2084C79.9347 45.2084 81.4014 44.5784 82.5952 43.3184C83.8232 42.0583 84.4371 40.3385 84.4371 38.1589Z" fill="white"/>
<path id="Vector_5" d="M108.263 23.9062V52.4109H99.5137V23.9062H108.263Z" fill="white"/>
<path id="Vector_6" d="M112.867 38.2115C112.867 35.3848 113.447 32.8647 114.607 30.6511C115.801 28.4375 117.387 26.7177 119.365 25.4917C121.377 24.2316 123.56 23.6016 125.914 23.6016C127.722 23.6016 129.342 23.9251 130.774 24.5722C132.207 25.1852 133.367 26.0536 134.254 27.1774V23.9081H143.003V66.0009H134.254V48.8369C133.257 50.0345 132.02 51.0092 130.621 51.6975C129.222 52.4127 127.619 52.7703 125.812 52.7703C123.492 52.7703 121.343 52.1573 119.365 50.9313C117.387 49.7053 115.801 47.9855 114.607 45.7718C113.447 43.5582 112.867 41.0381 112.867 38.2115ZM134.254 38.1604C134.254 36.6279 133.947 35.3508 133.333 34.3291C132.753 33.2734 131.985 32.4901 131.03 31.9793C130.114 31.4448 129.073 31.1627 128.012 31.1619C126.988 31.1619 125.999 31.4344 125.044 31.9793C124.089 32.4901 123.305 33.2734 122.691 34.3291C122.077 35.3848 121.77 36.679 121.77 38.2115C121.77 39.744 122.077 41.0381 122.691 42.0938C123.305 43.1155 124.089 43.8988 125.044 44.4437C125.999 44.9545 126.988 45.2099 128.012 45.2099C129.035 45.2099 130.024 44.9545 130.979 44.4437C131.968 43.8988 132.753 43.0985 133.333 42.0427C133.947 40.987 134.254 39.6929 134.254 38.1604Z" fill="white"/>
</g>
<defs>
<clipPath id="clip0_23_92">
<rect width="143" height="66" fill="white"/>
</clipPath>
</defs>
</svg>
