<svg width="181" height="13" viewBox="0 0 181 13" fill="none" xmlns="http://www.w3.org/2000/svg">
<path d="M0.77 11.0999H1.33C2.18867 11.0999 2.87 10.8432 3.374 10.3299C3.878 9.80719 4.13 9.10719 4.13 8.22985V0.669853H3.01V8.22985C3.01 8.77119 2.86067 9.20052 2.562 9.51785C2.26333 9.82585 1.85267 9.97985 1.33 9.97985H0.77V11.0999ZM8.60738 11.2679C9.18604 11.2679 9.70871 11.1512 10.1754 10.9179C10.642 10.6845 10.9967 10.3859 11.2394 10.0219V11.0999H12.2894V5.94785C12.2894 5.45319 12.168 5.01919 11.9254 4.64585C11.692 4.26319 11.3607 3.96452 10.9314 3.74985C10.5114 3.53519 10.026 3.42785 9.47537 3.42785C9.05538 3.42785 8.64938 3.50719 8.25738 3.66585C7.86538 3.81519 7.51538 4.02052 7.20737 4.28185C6.90871 4.54319 6.68938 4.83252 6.54938 5.14985L7.50138 5.66785C7.66938 5.30385 7.92604 5.00985 8.27138 4.78585C8.61671 4.55252 9.01804 4.43585 9.47537 4.43585C9.99804 4.43585 10.4227 4.57585 10.7494 4.85585C11.076 5.13585 11.2394 5.49985 11.2394 5.94785V6.33985L8.52338 6.78785C7.69271 6.92785 7.08604 7.21252 6.70338 7.64185C6.32071 8.07119 6.12938 8.57519 6.12938 9.15385C6.12938 9.56452 6.23671 9.92852 6.45138 10.2459C6.66604 10.5632 6.96004 10.8152 7.33338 11.0019C7.70671 11.1792 8.13138 11.2679 8.60738 11.2679ZM7.24938 9.11185C7.24938 8.76652 7.36604 8.46785 7.59938 8.21585C7.84204 7.96385 8.23404 7.79119 8.77538 7.69785L11.2394 7.29185V7.85185C11.2394 8.30919 11.132 8.72452 10.9174 9.09785C10.7027 9.47119 10.404 9.76985 10.0214 9.99385C9.63871 10.2085 9.19071 10.3159 8.67738 10.3159C8.25738 10.3159 7.91204 10.1992 7.64138 9.96585C7.38004 9.73252 7.24938 9.44785 7.24938 9.11185ZM14.4491 11.0999H15.4991V6.63385C15.4991 5.96185 15.6858 5.43452 16.0591 5.05185C16.4324 4.66919 16.9038 4.47785 17.4731 4.47785C18.0518 4.47785 18.5184 4.66919 18.8731 5.05185C19.2371 5.42519 19.4191 5.95252 19.4191 6.63385V11.0999H20.4691V6.22785C20.4691 5.69585 20.3431 5.21985 20.0911 4.79985C19.8484 4.37052 19.5124 4.03452 19.0831 3.79185C18.6631 3.54919 18.1871 3.42785 17.6551 3.42785C17.1884 3.42785 16.7684 3.52585 16.3951 3.72185C16.0218 3.91785 15.7231 4.18385 15.4991 4.51985V3.59585H14.4491V11.0999ZM26.3094 11.0999H27.4294V0.669853H24.3494V1.64985H26.3094V11.0999ZM34.1087 11.2679C34.93 11.2679 35.6487 11.0439 36.2647 10.5959C36.8807 10.1479 37.3567 9.51785 37.6927 8.70585C38.038 7.89385 38.2107 6.95119 38.2107 5.87785C38.2107 4.80452 38.038 3.86652 37.6927 3.06385C37.3474 2.25185 36.8667 1.62185 36.2507 1.17385C35.6347 0.725853 34.916 0.501853 34.0947 0.501853C33.2734 0.501853 32.5547 0.725853 31.9387 1.17385C31.3227 1.62185 30.842 2.25185 30.4967 3.06385C30.1514 3.86652 29.9787 4.80452 29.9787 5.87785C29.9787 6.95119 30.1514 7.89385 30.4967 8.70585C30.842 9.50852 31.3227 10.1385 31.9387 10.5959C32.564 11.0439 33.2874 11.2679 34.1087 11.2679ZM34.1087 10.2179C33.5114 10.2179 32.984 10.0359 32.5267 9.67185C32.0787 9.30785 31.7287 8.79919 31.4767 8.14585C31.2247 7.49252 31.0987 6.73652 31.0987 5.87785C31.0987 5.00985 31.2247 4.25385 31.4767 3.60985C31.7287 2.95652 32.0787 2.45252 32.5267 2.09785C32.9747 1.73385 33.4974 1.55185 34.0947 1.55185C34.7014 1.55185 35.2287 1.73385 35.6767 2.09785C36.1247 2.45252 36.4747 2.95652 36.7267 3.60985C36.9787 4.25385 37.1047 5.00985 37.1047 5.87785C37.1047 6.74585 36.9787 7.50652 36.7267 8.15985C36.4747 8.80385 36.1247 9.30785 35.6767 9.67185C35.2287 10.0359 34.706 10.2179 34.1087 10.2179ZM40.3446 12.9199C41.2779 12.6959 41.7446 11.9679 41.7446 10.7359V9.55985H40.6246V11.0999H41.1566C41.1566 11.8372 40.8859 12.2805 40.3446 12.4299V12.9199ZM46.189 11.0999H52.965V10.1199H47.799L50.445 7.20785C50.9583 6.64785 51.3783 6.15785 51.705 5.73785C52.0316 5.31785 52.2743 4.92585 52.433 4.56185C52.601 4.19785 52.685 3.81985 52.685 3.42785C52.685 2.85852 52.5496 2.35452 52.279 1.91585C52.0176 1.47719 51.6536 1.13185 51.187 0.879853C50.7203 0.627853 50.1743 0.501853 49.549 0.501853C48.6716 0.501853 47.925 0.753853 47.309 1.25785C46.693 1.75252 46.2916 2.42452 46.105 3.27385L47.127 3.49785C47.2763 2.86319 47.561 2.36852 47.981 2.01385C48.4103 1.65919 48.9376 1.48185 49.563 1.48185C50.1696 1.48185 50.655 1.64985 51.019 1.98585C51.383 2.32185 51.565 2.80252 51.565 3.42785C51.565 3.81985 51.4763 4.18385 51.299 4.51985C51.1216 4.85585 50.851 5.22919 50.487 5.63985C50.1323 6.05052 49.6703 6.56852 49.101 7.19385L46.189 10.3999V11.0999ZM58.9095 11.2679C59.7308 11.2679 60.4495 11.0439 61.0655 10.5959C61.6815 10.1479 62.1575 9.51785 62.4935 8.70585C62.8388 7.89385 63.0115 6.95119 63.0115 5.87785C63.0115 4.80452 62.8388 3.86652 62.4935 3.06385C62.1482 2.25185 61.6675 1.62185 61.0515 1.17385C60.4355 0.725853 59.7168 0.501853 58.8955 0.501853C58.0742 0.501853 57.3555 0.725853 56.7395 1.17385C56.1235 1.62185 55.6428 2.25185 55.2975 3.06385C54.9522 3.86652 54.7795 4.80452 54.7795 5.87785C54.7795 6.95119 54.9522 7.89385 55.2975 8.70585C55.6428 9.50852 56.1235 10.1385 56.7395 10.5959C57.3648 11.0439 58.0882 11.2679 58.9095 11.2679ZM58.9095 10.2179C58.3122 10.2179 57.7848 10.0359 57.3275 9.67185C56.8795 9.30785 56.5295 8.79919 56.2775 8.14585C56.0255 7.49252 55.8995 6.73652 55.8995 5.87785C55.8995 5.00985 56.0255 4.25385 56.2775 3.60985C56.5295 2.95652 56.8795 2.45252 57.3275 2.09785C57.7755 1.73385 58.2982 1.55185 58.8955 1.55185C59.5022 1.55185 60.0295 1.73385 60.4775 2.09785C60.9255 2.45252 61.2755 2.95652 61.5275 3.60985C61.7795 4.25385 61.9055 5.00985 61.9055 5.87785C61.9055 6.74585 61.7795 7.50652 61.5275 8.15985C61.2755 8.80385 60.9255 9.30785 60.4775 9.67185C60.0295 10.0359 59.5068 10.2179 58.9095 10.2179ZM64.8374 11.0999H71.6134V10.1199H66.4474L69.0934 7.20785C69.6067 6.64785 70.0267 6.15785 70.3534 5.73785C70.6801 5.31785 70.9227 4.92585 71.0814 4.56185C71.2494 4.19785 71.3334 3.81985 71.3334 3.42785C71.3334 2.85852 71.1981 2.35452 70.9274 1.91585C70.6661 1.47719 70.3021 1.13185 69.8354 0.879853C69.3687 0.627853 68.8227 0.501853 68.1974 0.501853C67.3201 0.501853 66.5734 0.753853 65.9574 1.25785C65.3414 1.75252 64.9401 2.42452 64.7534 3.27385L65.7754 3.49785C65.9247 2.86319 66.2094 2.36852 66.6294 2.01385C67.0587 1.65919 67.5861 1.48185 68.2114 1.48185C68.8181 1.48185 69.3034 1.64985 69.6674 1.98585C70.0314 2.32185 70.2134 2.80252 70.2134 3.42785C70.2134 3.81985 70.1247 4.18385 69.9474 4.51985C69.7701 4.85585 69.4994 5.22919 69.1354 5.63985C68.7807 6.05052 68.3187 6.56852 67.7494 7.19385L64.8374 10.3999V11.0999ZM73.2319 11.0999H80.0079V10.1199H74.8419L77.4879 7.20785C78.0013 6.64785 78.4213 6.15785 78.7479 5.73785C79.0746 5.31785 79.3173 4.92585 79.4759 4.56185C79.6439 4.19785 79.7279 3.81985 79.7279 3.42785C79.7279 2.85852 79.5926 2.35452 79.3219 1.91585C79.0606 1.47719 78.6966 1.13185 78.2299 0.879853C77.7633 0.627853 77.2173 0.501853 76.5919 0.501853C75.7146 0.501853 74.9679 0.753853 74.3519 1.25785C73.7359 1.75252 73.3346 2.42452 73.1479 3.27385L74.1699 3.49785C74.3193 2.86319 74.6039 2.36852 75.0239 2.01385C75.4533 1.65919 75.9806 1.48185 76.6059 1.48185C77.2126 1.48185 77.6979 1.64985 78.0619 1.98585C78.4259 2.32185 78.6079 2.80252 78.6079 3.42785C78.6079 3.81985 78.5193 4.18385 78.3419 4.51985C78.1646 4.85585 77.8939 5.22919 77.5299 5.63985C77.1753 6.05052 76.7133 6.56852 76.1439 7.19385L73.2319 10.3999V11.0999ZM95.817 7.79585C96.1717 7.79585 96.4937 7.71185 96.783 7.54385C97.0723 7.36652 97.301 7.13319 97.469 6.84385C97.637 6.55452 97.7163 6.22785 97.707 5.86385C97.707 5.50919 97.623 5.19185 97.455 4.91185C97.287 4.62252 97.0583 4.39385 96.769 4.22585C96.489 4.05785 96.1717 3.97385 95.817 3.97385C95.4623 3.97385 95.1357 4.05785 94.837 4.22585C94.5477 4.39385 94.319 4.62252 94.151 4.91185C93.983 5.19185 93.899 5.50919 93.899 5.86385C93.899 6.22785 93.983 6.55452 94.151 6.84385C94.319 7.13319 94.5477 7.36652 94.837 7.54385C95.1357 7.71185 95.4623 7.79585 95.817 7.79585ZM114.913 11.2679C115.604 11.2679 116.215 11.1232 116.747 10.8339C117.279 10.5352 117.694 10.1385 117.993 9.64385C118.292 9.13985 118.441 8.57985 118.441 7.96385C118.441 7.37585 118.315 6.85785 118.063 6.40985C117.811 5.95252 117.461 5.58852 117.013 5.31785C116.574 5.03785 116.066 4.86519 115.487 4.79985L117.993 1.64985V0.669853H111.931V1.64985H116.733L113.919 5.21985L114.143 5.70985C114.236 5.69119 114.353 5.67719 114.493 5.66785C114.642 5.65852 114.778 5.65385 114.899 5.65385C115.59 5.65385 116.164 5.85452 116.621 6.25585C117.088 6.64785 117.321 7.21719 117.321 7.96385C117.321 8.70119 117.092 9.27519 116.635 9.68585C116.187 10.0872 115.613 10.2879 114.913 10.2879C114.325 10.2879 113.802 10.1339 113.345 9.82585C112.888 9.50852 112.552 9.07919 112.337 8.53785L111.441 8.95785C111.712 9.67652 112.155 10.2412 112.771 10.6519C113.387 11.0625 114.101 11.2679 114.913 11.2679ZM122.939 11.0999H124.059V2.82585L127.531 7.87985H127.587L131.059 2.85385V11.0999H132.179V0.669853H131.199L127.559 5.96185L123.919 0.669853H122.939V11.0999ZM134.488 2.20985H135.538V0.669853H134.488V2.20985ZM134.488 11.0999H135.538V3.59585H134.488V11.0999ZM137.687 11.0999H138.737V6.63385C138.737 5.96185 138.924 5.43452 139.297 5.05185C139.671 4.66919 140.142 4.47785 140.711 4.47785C141.29 4.47785 141.757 4.66919 142.111 5.05185C142.475 5.42519 142.657 5.95252 142.657 6.63385V11.0999H143.707V6.22785C143.707 5.69585 143.581 5.21985 143.329 4.79985C143.087 4.37052 142.751 4.03452 142.321 3.79185C141.901 3.54919 141.425 3.42785 140.893 3.42785C140.427 3.42785 140.007 3.52585 139.633 3.72185C139.26 3.91785 138.961 4.18385 138.737 4.51985V3.59585H137.687V11.0999ZM148.246 11.0999H149.366V7.03985H151.914L154.21 11.0999H155.526L153.09 6.85785C153.752 6.64319 154.275 6.27452 154.658 5.75185C155.05 5.22919 155.246 4.59919 155.246 3.86185C155.246 3.22719 155.101 2.67185 154.812 2.19585C154.532 1.71052 154.135 1.33719 153.622 1.07585C153.108 0.805186 152.511 0.669853 151.83 0.669853H148.246V11.0999ZM149.366 5.98985V1.71985H151.886C152.558 1.71985 153.099 1.91119 153.51 2.29385C153.92 2.66719 154.126 3.18519 154.126 3.84785C154.126 4.51052 153.92 5.03319 153.51 5.41585C153.099 5.79852 152.558 5.98985 151.886 5.98985H149.366ZM160.053 11.2679C160.566 11.2679 161.033 11.1839 161.453 11.0159C161.882 10.8385 162.251 10.6099 162.559 10.3299C162.867 10.0405 163.095 9.72785 163.245 9.39185L162.349 8.91585C162.115 9.30785 161.812 9.63452 161.439 9.89585C161.065 10.1572 160.603 10.2879 160.053 10.2879C159.605 10.2879 159.185 10.1805 158.793 9.96585C158.401 9.75119 158.079 9.45252 157.827 9.06985C157.584 8.67785 157.453 8.21119 157.435 7.66985H163.343C163.361 7.54852 163.375 7.43185 163.385 7.31985C163.394 7.19852 163.399 7.09119 163.399 6.99785C163.399 6.54985 163.319 6.11585 163.161 5.69585C163.002 5.26652 162.773 4.88385 162.475 4.54785C162.176 4.20252 161.812 3.93185 161.383 3.73585C160.963 3.53052 160.482 3.42785 159.941 3.42785C159.259 3.42785 158.643 3.59585 158.093 3.93185C157.551 4.26785 157.122 4.72985 156.805 5.31785C156.487 5.89652 156.329 6.56385 156.329 7.31985C156.329 8.07585 156.492 8.75252 156.819 9.34985C157.145 9.94719 157.589 10.4185 158.149 10.7639C158.718 11.0999 159.353 11.2679 160.053 11.2679ZM159.941 4.40785C160.361 4.40785 160.743 4.50585 161.089 4.70185C161.443 4.89785 161.723 5.16852 161.929 5.51385C162.143 5.84985 162.255 6.24185 162.265 6.68985H157.463C157.519 6.22319 157.663 5.82185 157.897 5.48585C158.139 5.14052 158.438 4.87452 158.793 4.68785C159.147 4.50119 159.53 4.40785 159.941 4.40785ZM167.283 11.2679C167.862 11.2679 168.384 11.1512 168.851 10.9179C169.318 10.6845 169.672 10.3859 169.915 10.0219V11.0999H170.965V5.94785C170.965 5.45319 170.844 5.01919 170.601 4.64585C170.368 4.26319 170.036 3.96452 169.607 3.74985C169.187 3.53519 168.702 3.42785 168.151 3.42785C167.731 3.42785 167.325 3.50719 166.933 3.66585C166.541 3.81519 166.191 4.02052 165.883 4.28185C165.584 4.54319 165.365 4.83252 165.225 5.14985L166.177 5.66785C166.345 5.30385 166.602 5.00985 166.947 4.78585C167.292 4.55252 167.694 4.43585 168.151 4.43585C168.674 4.43585 169.098 4.57585 169.425 4.85585C169.752 5.13585 169.915 5.49985 169.915 5.94785V6.33985L167.199 6.78785C166.368 6.92785 165.762 7.21252 165.379 7.64185C164.996 8.07119 164.805 8.57519 164.805 9.15385C164.805 9.56452 164.912 9.92852 165.127 10.2459C165.342 10.5632 165.636 10.8152 166.009 11.0019C166.382 11.1792 166.807 11.2679 167.283 11.2679ZM165.925 9.11185C165.925 8.76652 166.042 8.46785 166.275 8.21585C166.518 7.96385 166.91 7.79119 167.451 7.69785L169.915 7.29185V7.85185C169.915 8.30919 169.808 8.72452 169.593 9.09785C169.378 9.47119 169.08 9.76985 168.697 9.99385C168.314 10.2085 167.866 10.3159 167.353 10.3159C166.933 10.3159 166.588 10.1992 166.317 9.96585C166.056 9.73252 165.925 9.44785 165.925 9.11185ZM176.513 11.2679C177.092 11.2679 177.624 11.1465 178.109 10.9039C178.594 10.6612 178.977 10.3205 179.257 9.88185V11.0999H180.307V0.501853H179.257V4.72985C178.949 4.32852 178.562 4.01119 178.095 3.77785C177.628 3.54452 177.101 3.42785 176.513 3.42785C175.804 3.42785 175.169 3.60052 174.609 3.94585C174.058 4.28185 173.62 4.74385 173.293 5.33185C172.976 5.91985 172.817 6.59185 172.817 7.34785C172.817 8.09452 172.976 8.76652 173.293 9.36385C173.62 9.95185 174.063 10.4185 174.623 10.7639C175.183 11.0999 175.813 11.2679 176.513 11.2679ZM176.569 10.2179C176.065 10.2179 175.612 10.0919 175.211 9.83985C174.819 9.58785 174.506 9.24719 174.273 8.81785C174.049 8.37919 173.937 7.88919 173.937 7.34785C173.937 6.79719 174.049 6.30719 174.273 5.87785C174.506 5.44852 174.824 5.10785 175.225 4.85585C175.626 4.60385 176.074 4.47785 176.569 4.47785C177.073 4.47785 177.526 4.60385 177.927 4.85585C178.338 5.10785 178.66 5.45319 178.893 5.89185C179.136 6.32119 179.257 6.80652 179.257 7.34785C179.257 7.88919 179.136 8.37919 178.893 8.81785C178.66 9.24719 178.338 9.58785 177.927 9.83985C177.526 10.0919 177.073 10.2179 176.569 10.2179Z" fill="#2B2C34"/>
</svg>
