<svg width="34" height="30" viewBox="0 0 34 30" fill="none" xmlns="http://www.w3.org/2000/svg">
<g id="logos:react" clip-path="url(#clip0_459_16)">
<path id="Vector" d="M27.6197 9.66996C27.2715 9.54923 26.9203 9.4374 26.5665 9.33455C26.626 9.08916 26.6807 8.84674 26.7292 8.60858C27.5265 4.69773 27.0053 1.54706 25.2251 0.509713C23.5182 -0.484759 20.7268 0.552204 17.9076 3.03154C17.6298 3.27632 17.3581 3.52816 17.0929 3.78682C16.9153 3.61482 16.7346 3.44616 16.5508 3.28093C13.5962 0.629953 10.6346 -0.487342 8.85635 0.552979C7.15102 1.55055 6.64606 4.5124 7.36382 8.2188C7.43523 8.58588 7.51586 8.95107 7.60563 9.31401C7.18642 9.43438 6.78191 9.5625 6.39479 9.69889C2.93071 10.9194 0.718506 12.832 0.718506 14.8159C0.718506 16.8649 3.09341 18.9201 6.7014 20.1663C6.9939 20.2669 7.28884 20.3601 7.58595 20.4459C7.48946 20.8368 7.40379 21.2303 7.32906 21.6261C6.64478 25.2682 7.17914 28.16 8.87986 29.1513C10.6364 30.1749 13.5847 29.1228 16.4554 26.5869C16.6881 26.3808 16.9158 26.1688 17.1381 25.9511C17.4253 26.2312 17.7203 26.5031 18.0225 26.7666C20.8033 29.1846 23.5497 30.161 25.2487 29.167C27.0036 28.1404 27.574 25.0338 26.8335 21.2541C26.7752 20.958 26.7098 20.6634 26.6373 20.3705C26.8444 20.3085 27.0476 20.2447 27.2457 20.1783C30.9966 18.9225 33.437 16.8923 33.437 14.8159C33.437 12.8248 31.1534 10.8992 27.6197 9.66996V9.66996ZM26.8062 18.8377C26.6272 18.8975 26.4437 18.9552 26.2566 19.0114C25.8425 17.6867 25.2837 16.2782 24.5998 14.8227C25.2524 13.4021 25.7897 12.0115 26.1922 10.6954C26.5269 10.7933 26.8517 10.8965 27.1648 11.0054C30.1925 12.0588 32.0393 13.6159 32.0393 14.8159C32.0393 16.094 30.0448 17.7532 26.8062 18.8377V18.8377ZM25.4624 21.5284C25.7898 23.1997 25.8365 24.7108 25.6196 25.8921C25.4248 26.9536 25.033 27.6612 24.5483 27.9447C23.5173 28.5479 21.3123 27.7639 18.9342 25.6959C18.653 25.451 18.3787 25.1982 18.1115 24.9378C19.0335 23.9189 19.9548 22.7345 20.8541 21.4189C22.4358 21.2771 23.9301 21.0452 25.2853 20.7286C25.3505 20.9938 25.4096 21.2605 25.4624 21.5284V21.5284ZM11.873 27.8405C10.8656 28.1999 10.0632 28.2103 9.5782 27.9277C8.54616 27.3262 8.11711 25.0042 8.70234 21.8896C8.77191 21.5215 8.85156 21.1555 8.94121 20.7919C10.2814 21.0915 11.7648 21.3069 13.3503 21.4369C14.2557 22.7241 15.2036 23.9073 16.159 24.9434C15.9559 25.1419 15.7481 25.3353 15.5357 25.5235C14.2662 26.6448 12.9941 27.4404 11.873 27.8405V27.8405ZM7.15358 18.8298C5.55816 18.2787 4.2406 17.5626 3.33752 16.7811C2.52595 16.0789 2.11633 15.3816 2.11633 14.8159C2.11633 13.6119 3.89246 12.0763 6.85489 11.0326C7.21441 10.9061 7.59068 10.7866 7.98113 10.6745C8.39062 12.0203 8.92766 13.4274 9.57577 14.8502C8.91923 16.2942 8.37451 17.7238 7.96106 19.0854C7.68987 19.0069 7.42062 18.9217 7.15358 18.8298V18.8298ZM8.73557 7.94745C8.12069 4.77199 8.52903 2.37661 9.55673 1.7754C10.6513 1.13507 13.0717 2.04804 15.6228 4.33714C15.7892 4.48674 15.9528 4.63938 16.1137 4.79498C15.1631 5.82652 14.2238 7.0009 13.3265 8.28054C11.7877 8.42467 10.3147 8.65611 8.96051 8.96621C8.87707 8.62863 8.80207 8.28898 8.73557 7.94758V7.94745ZM22.8489 11.4692C22.529 10.9108 22.1973 10.3595 21.8539 9.81564C22.8978 9.94905 23.8981 10.1261 24.8373 10.3426C24.5554 11.2559 24.2039 12.2108 23.7902 13.1897C23.4878 12.6099 23.174 12.0363 22.8489 11.4692V11.4692ZM17.0935 5.80443C17.7381 6.51025 18.3838 7.29821 19.0189 8.15319C17.7306 8.09171 16.4402 8.09145 15.1519 8.15242C15.7876 7.30531 16.4387 6.51839 17.0935 5.80443ZM11.3012 11.4789C10.9802 12.0414 10.6722 12.6115 10.3775 13.1886C9.97057 12.2131 9.62229 11.2539 9.33792 10.3276C10.2714 10.1166 11.2669 9.94402 12.3042 9.81306C11.957 10.3603 11.6226 10.9156 11.3012 11.4787V11.4789ZM12.334 19.9192C11.2623 19.7983 10.2519 19.6347 9.31862 19.4293C9.60747 18.4865 9.96341 17.5069 10.3792 16.5105C10.675 17.088 10.9843 17.6584 11.3067 18.2212C11.6382 18.7998 11.9815 19.3666 12.334 19.9192ZM17.1321 23.9268C16.4695 23.2046 15.8088 22.4055 15.1635 21.5461C15.79 21.5709 16.4286 21.5836 17.0778 21.5836C17.7447 21.5836 18.4039 21.5685 19.0528 21.5393C18.4157 22.4142 17.7724 23.2144 17.1321 23.9268ZM23.8033 16.4596C24.2407 17.467 24.6093 18.4415 24.902 19.3681C23.9534 19.5869 22.9292 19.7631 21.8499 19.8939C22.1958 19.3399 22.5306 18.779 22.8544 18.2116C23.1835 17.6348 23.4999 17.0506 23.8033 16.4596V16.4596ZM21.6437 17.5059C21.1481 18.3759 20.6246 19.2294 20.0741 20.065C19.0769 20.1364 18.0775 20.1718 17.0778 20.1713C16.0595 20.1713 15.0692 20.1393 14.1155 20.0768C13.5506 19.2431 13.0171 18.3881 12.5162 17.5136H12.5163C12.0178 16.6438 11.5521 15.7551 11.1203 14.8496C11.551 13.9438 12.0153 13.0548 12.5121 12.1843L12.512 12.1844C13.0087 11.3137 13.5379 10.4624 14.0985 9.63224C15.0715 9.55785 16.0692 9.51911 17.0776 9.51911H17.0778C18.0908 9.51911 19.0898 9.55824 20.0626 9.63315C20.6175 10.462 21.1433 11.3104 21.6391 12.1768C22.1376 13.0454 22.608 13.9301 23.0495 14.8296C22.6125 15.7383 22.1436 16.6309 21.6437 17.5059V17.5059ZM24.527 1.7333C25.6225 2.37183 26.0487 4.94673 25.3603 8.32342C25.3163 8.53884 25.267 8.75827 25.2133 8.9808C23.8557 8.66412 22.3818 8.42867 20.8385 8.28235C19.9395 6.98863 19.0079 5.81244 18.0727 4.7942C18.3178 4.55547 18.5688 4.32292 18.8253 4.09678C21.2408 1.97262 23.4984 1.1339 24.527 1.7333V1.7333ZM17.0778 11.8635C18.6913 11.8635 19.9994 13.1853 19.9994 14.8159C19.9994 16.4464 18.6913 17.7683 17.0778 17.7683C15.4642 17.7683 14.1561 16.4464 14.1561 14.8159C14.1561 13.1853 15.4642 11.8635 17.0778 11.8635V11.8635Z" fill="#00D8FF"/>
</g>
<defs>
<clipPath id="clip0_459_16">
<rect width="32.7185" height="29.4467" fill="white" transform="translate(0.718506 0.135376)"/>
</clipPath>
</defs>
</svg>
