<svg version="1.1" id="Layer_1" xmlns="http://www.w3.org/2000/svg" xmlns:xlink="http://www.w3.org/1999/xlink" x="0px" y="0px"
	 width="100%" viewBox="0 0 832 336" enable-background="new 0 0 832 336" xml:space="preserve">
<path fill="#000000" opacity="1.000000" stroke="none" 
	d="
M180.243820,86.761299 
	C175.680664,82.587196 171.429382,78.592850 167.042343,74.753609 
	C164.637955,72.649460 164.864319,71.070595 167.313904,69.204781 
	C174.999847,63.350479 182.653839,57.451500 190.214066,51.436401 
	C192.798584,49.380093 194.614594,50.236946 196.723969,52.121128 
	C217.970367,71.099243 239.249237,90.041061 260.541504,108.967743 
	C304.617828,148.147217 348.709625,187.309250 392.790619,226.483475 
	C400.635681,233.455231 408.560455,240.342407 416.239990,247.492538 
	C419.080170,250.136917 420.902191,250.516251 424.025757,247.615860 
	C476.277130,199.097885 528.652893,150.713867 580.994202,102.292755 
	C602.028320,82.834030 623.124695,63.441135 643.994202,43.807278 
	C647.448303,40.557632 649.675476,40.720341 653.169067,43.548767 
	C659.376587,48.574425 665.992615,53.098782 672.476440,57.779202 
	C678.040649,61.795826 678.121033,61.859135 673.255493,66.465599 
	C643.618652,94.524391 613.949402,122.548958 584.303223,150.597931 
	C541.706543,190.899750 499.104523,231.196045 456.540710,271.532593 
	C445.777863,281.732269 435.036530,291.960480 424.531738,302.423065 
	C421.376465,305.565643 419.426178,305.215912 416.333344,302.384186 
	C348.011749,239.829880 279.608551,177.364685 211.210419,114.894005 
	C201.000137,105.568542 190.737473,96.300415 180.243820,86.761299 
z"/>
</svg>