<?xml version="1.0" encoding="UTF-8"?>
<svg xmlns="http://www.w3.org/2000/svg" xmlns:xlink="http://www.w3.org/1999/xlink" width="14px" height="6px" viewBox="0 0 14 6" version="1.1">
<g id="surface1">
<path style=" stroke:none;fill-rule:nonzero;fill:rgb(0%,0%,0%);fill-opacity:1;" d="M 3.03125 1.550781 C 2.957031 1.476562 2.882812 1.402344 2.8125 1.335938 C 2.769531 1.296875 2.773438 1.269531 2.816406 1.234375 C 2.945312 1.132812 3.074219 1.027344 3.199219 0.917969 C 3.246094 0.882812 3.273438 0.898438 3.308594 0.929688 C 3.667969 1.269531 4.027344 1.609375 4.382812 1.945312 C 5.125 2.644531 5.867188 3.34375 6.609375 4.042969 C 6.742188 4.167969 6.875 4.292969 7.003906 4.417969 C 7.050781 4.464844 7.082031 4.472656 7.136719 4.421875 C 8.015625 3.554688 8.894531 2.691406 9.777344 1.828125 C 10.128906 1.480469 10.484375 1.132812 10.835938 0.78125 C 10.894531 0.722656 10.933594 0.726562 10.992188 0.777344 C 11.09375 0.867188 11.207031 0.949219 11.316406 1.03125 C 11.410156 1.101562 11.410156 1.105469 11.328125 1.1875 C 10.832031 1.6875 10.332031 2.1875 9.832031 2.6875 C 9.117188 3.410156 8.398438 4.128906 7.683594 4.847656 C 7.5 5.03125 7.320312 5.214844 7.144531 5.402344 C 7.089844 5.457031 7.058594 5.449219 7.003906 5.398438 C 5.855469 4.28125 4.703125 3.167969 3.554688 2.050781 C 3.382812 1.886719 3.210938 1.71875 3.03125 1.550781 Z M 3.03125 1.550781 "/>
</g>
</svg>
