<svg width="39" height="39" viewBox="0 0 39 39" fill="none" xmlns="http://www.w3.org/2000/svg">
<g clip-path="url(#clip0_520_8940)">
<circle cx="19.5" cy="19.5" r="19.5" fill="#717171"/>
<path d="M18.4685 9C18.439 9.00544 18.4095 9.01488 18.3797 9.0157C17.7361 9.03384 17.0956 9.11103 16.466 9.24629C15.0973 9.53824 13.8549 10.098 12.783 11.0121C11.8953 11.7694 11.2144 12.6869 10.7012 13.7329C10.4131 14.3199 10.1897 14.9312 10.0146 15.561C10.0092 15.5804 10.0066 15.6005 10 15.6339L11.7532 16.1036C11.7658 16.0614 11.7763 16.0266 11.7864 15.9917C11.997 15.2631 12.2806 14.5669 12.6787 13.92C13.4172 12.7201 14.4482 11.8767 15.7611 11.3783C16.3788 11.1438 17.0184 11.0021 17.6739 10.9247C18.327 10.8468 18.9863 10.8346 19.6419 10.8882C20.5194 10.9606 21.3714 11.1403 22.182 11.4958C23.3225 11.9965 24.2106 12.7844 24.8602 13.8472C25.3001 14.567 25.5976 15.3454 25.8036 16.1612C25.9775 16.8482 26.0812 17.5466 26.1378 18.2525C26.19 18.904 26.2078 19.5558 26.174 20.2087C26.1169 21.3145 25.966 22.4047 25.6244 23.4617C25.3653 24.2637 25.0056 25.0146 24.495 25.6886C23.8152 26.5854 22.9422 27.2208 21.896 27.6221C21.2886 27.8551 20.6597 27.9965 20.015 28.0737C19.4364 28.1433 18.8528 28.1624 18.2709 28.1306C17.4442 28.0855 16.6323 27.9624 15.8553 27.6604C14.96 27.3124 14.2055 26.7647 13.5887 26.0293C13.1079 25.4566 12.8077 24.7969 12.7131 24.0525C12.6149 23.28 12.7203 22.5388 13.1094 21.8537C13.3958 21.3489 13.8098 20.9685 14.2977 20.6643C14.3127 20.6568 14.3281 20.6502 14.3439 20.6446C14.3566 20.7238 14.3685 20.7969 14.3804 20.8704C14.4827 21.5004 14.6488 22.1113 14.9337 22.6853C15.2667 23.3559 15.7262 23.9175 16.3555 24.3308C16.826 24.6403 17.3442 24.8301 17.8955 24.9332C18.3145 25.0122 18.7415 25.0393 19.167 25.0138C20.0569 24.9601 20.8806 24.7067 21.5955 24.1559C22.2821 23.6268 22.7151 22.9328 22.8354 22.0712C23.0328 20.6566 22.5315 19.5388 21.3499 18.7375C20.8441 18.3945 20.2781 18.1919 19.6836 18.0655C19.0964 17.9398 18.5015 17.9163 17.9048 17.9177C17.3291 17.9173 16.7542 17.9635 16.1858 18.056C16.1725 18.0569 16.1591 18.0569 16.1458 18.056C16.1497 18.0246 16.152 17.9958 16.1569 17.9674C16.2062 17.6777 16.2901 17.3949 16.4069 17.1253C16.6941 16.4707 17.1786 16.0445 17.871 15.8653C18.4931 15.704 19.1177 15.6981 19.7386 15.8714C20.2996 16.028 20.7532 16.3435 21.0926 16.8213C21.1064 16.8407 21.12 16.8603 21.1347 16.8791C21.1386 16.8839 21.1461 16.8858 21.1585 16.893L22.6475 15.8678C22.5396 15.6984 22.4186 15.5377 22.2857 15.3872C21.6875 14.7037 20.9447 14.2584 20.0655 14.0437C19.1709 13.8258 18.2745 13.8384 17.3871 14.0766C16.1614 14.405 15.297 15.1681 14.7744 16.324C14.552 16.8156 14.415 17.3328 14.34 17.8663C14.3058 18.1096 14.2838 18.3545 14.255 18.6102C14.2258 18.6236 14.1894 18.6409 14.1527 18.6572C13.4021 18.9965 12.7309 19.4487 12.1723 20.0604C11.5343 20.759 11.1418 21.5792 10.9675 22.508C10.8699 23.0188 10.8436 23.5408 10.8892 24.059C10.9797 25.0639 11.31 25.9837 11.8893 26.8084C12.5548 27.7555 13.4122 28.4877 14.4278 29.0343C15.1541 29.4251 15.9302 29.6705 16.7395 29.816C17.511 29.9551 18.2946 30.0157 19.0783 29.9966C20.135 29.97 21.1738 29.8244 22.1811 29.488C24.0507 28.8635 25.4791 27.6931 26.4787 25.993C27.0094 25.0908 27.3641 24.1194 27.6033 23.1033C27.7696 22.3973 27.8747 21.6819 27.9363 20.9593C27.9945 20.2953 28.0129 19.6284 27.9912 18.9622C27.9479 17.7153 27.7913 16.4848 27.4424 15.2836C27.156 14.2966 26.7483 13.3646 26.1679 12.5143C25.1773 11.0627 23.8451 10.0662 22.1823 9.51207C21.5829 9.31227 20.9686 9.17887 20.3422 9.09954C19.9974 9.05593 19.6519 9.02227 19.3041 9.0156C19.2708 9.01498 19.2376 9.00534 19.2045 9H18.4685ZM16.0944 19.9688C16.1098 19.9624 16.1255 19.9568 16.1415 19.9521C16.5549 19.8663 16.9739 19.811 17.3952 19.7866C17.7964 19.7622 18.1987 19.7622 18.5999 19.7866C18.9917 19.8101 19.3785 19.8646 19.7522 19.9908C20.0987 20.1079 20.4147 20.276 20.6692 20.5459C21.2495 21.1616 21.1922 22.1057 20.5418 22.6456C20.2905 22.854 20.0003 22.9842 19.6875 23.0663C19.1461 23.2086 18.6022 23.1997 18.0596 23.078C17.6559 22.9876 17.2994 22.8034 17.0053 22.5066C16.779 22.2783 16.612 22.0104 16.4842 21.7165C16.2748 21.236 16.1742 20.7287 16.1169 20.2109C16.1085 20.1311 16.1024 20.0503 16.0944 19.9688Z" fill="white"/>
</g>
<defs>
<clipPath id="clip0_520_8940">
<rect width="39" height="39" fill="white"/>
</clipPath>
</defs>
</svg>
