<svg width="39" height="39" viewBox="0 0 39 39" fill="none" xmlns="http://www.w3.org/2000/svg">
<g clip-path="url(#clip0_520_8934)">
<circle cx="19.5" cy="19.5" r="19.5" fill="#717171"/>
<path d="M29.9553 14.6012C29.9553 14.4954 29.9553 14.4928 29.8421 14.4928C29.5838 14.4906 29.326 14.4685 29.0711 14.4267C28.1395 14.2892 25.1263 12.7028 24.6158 10.0984C24.5552 9.77773 24.5139 9.45368 24.4921 9.12802C24.4921 9.00375 24.4921 9.00375 24.3711 9.0011H20.7474C20.5106 9.0011 20.5448 8.97202 20.5448 9.21263V24.6327C20.5488 24.8239 20.5356 25.0151 20.5053 25.2038C20.433 25.6475 20.2721 26.0719 20.0324 26.4514C19.7926 26.831 19.479 27.158 19.1102 27.4126C18.7415 27.6673 18.3253 27.8444 17.8867 27.9332C17.4481 28.0221 16.9961 28.021 16.558 27.9299C16.2916 27.8662 16.0317 27.7777 15.7817 27.6655L15.7185 27.6099C15.6346 27.5397 15.5468 27.4743 15.4554 27.4143C14.3633 26.6554 13.8448 25.6005 14.0027 24.2811C14.1606 22.9617 14.929 22.0336 16.1922 21.5656C16.5686 21.429 16.9692 21.3723 17.3685 21.3991C17.6282 21.4089 17.8859 21.4479 18.1369 21.5154C18.2238 21.5418 18.2711 21.5154 18.2764 21.4176V21.3197C18.2764 20.397 18.2448 18.3822 18.2395 18.3769C18.2395 18.1125 18.2395 17.8481 18.2395 17.5837C18.2395 17.507 18.2027 17.4938 18.1395 17.4859C17.0557 17.351 15.9556 17.4638 14.9212 17.8159C13.8869 18.168 12.945 18.7502 12.1659 19.5191C10.8967 20.7629 10.1308 22.4347 10.0159 24.2123C9.95634 25.112 10.0643 26.015 10.3343 26.8749C10.7733 28.2788 11.628 29.5148 12.7843 30.4179C12.8966 30.5224 13.0222 30.6114 13.158 30.6823L13.3369 30.841C13.5289 30.9826 13.7333 31.1065 13.9475 31.2111C15.2271 31.8657 16.6721 32.1217 18.0974 31.9462C19.929 31.745 21.6126 30.8414 22.7974 29.4238C23.9382 28.105 24.5581 26.4116 24.5395 24.6645C24.5553 22.105 24.5395 19.5456 24.5395 16.9967C24.5395 16.9359 24.5053 16.8486 24.5711 16.8169C24.6369 16.7852 24.6764 16.8645 24.7263 16.8962C25.665 17.5196 26.7081 17.9675 27.8053 18.2183C28.4469 18.3714 29.1037 18.4512 29.7632 18.4562C29.9711 18.4562 30 18.4562 30 18.2368C30 17.3272 29.9526 14.8418 29.9553 14.6012Z" fill="white"/>
</g>
<defs>
<clipPath id="clip0_520_8934">
<rect width="39" height="39" fill="white"/>
</clipPath>
</defs>
</svg>
