<svg width="39" height="39" viewBox="0 0 39 39" fill="none" xmlns="http://www.w3.org/2000/svg">
<g clip-path="url(#clip0_520_8937)">
<circle cx="19.5" cy="19.5" r="19.5" fill="#717171"/>
<path d="M30 28.994H29.7675C27.929 28.994 26.0905 28.9919 24.2519 28.998C24.0975 28.998 24.0068 28.9447 23.9173 28.8147C22.1888 26.3374 20.4573 23.8624 18.7228 21.3898C18.6701 21.3147 18.6154 21.2409 18.5504 21.1506C18.1639 21.5957 17.7852 22.0308 17.4064 22.4664C15.5766 24.58 13.7473 26.6942 11.9186 28.809C11.8042 28.9399 11.691 29.0049 11.5166 28.9997C11.0337 28.9853 10.5507 28.9949 10 28.9949L17.7676 20.0278L10.0601 9.01912C10.1589 9.01301 10.2169 9.00647 10.2754 9.00647C12.1139 9.00647 13.9524 9.00501 15.791 9.0021C15.9397 9.0021 16.0361 9.04269 16.1293 9.17666C17.7227 11.4617 19.3199 13.7439 20.9209 16.0233C20.9618 16.0814 21.0026 16.1386 21.1007 16.2743C21.1415 16.1931 21.1591 16.1176 21.2028 16.0665C23.1846 13.7763 25.1671 11.4859 27.1503 9.19543C27.201 9.12958 27.2658 9.07761 27.3391 9.04384C27.4124 9.01006 27.4922 8.99546 27.5719 9.00123C27.987 9.01301 28.4025 9.00472 28.818 9.00559C28.883 9.00559 28.9484 9.01258 29.0632 9.01869L21.8467 17.3474L30 28.994ZM27.4089 27.6124C27.3435 27.512 27.3039 27.4466 27.2602 27.3842C25.9155 25.464 24.5706 23.5438 23.2256 21.6237C20.6419 17.9332 18.0584 14.243 15.4752 10.5531C15.4041 10.451 15.3416 10.3728 15.2002 10.3741C14.397 10.3824 13.5937 10.3776 12.7897 10.3789C12.7418 10.3834 12.6943 10.3916 12.6475 10.4034C12.701 10.4832 12.739 10.5426 12.7795 10.6002L21.0324 22.3856C22.214 24.073 23.3964 25.7605 24.5796 27.4479C24.6303 27.5199 24.7218 27.605 24.7949 27.6063C25.6525 27.6163 26.5096 27.6124 27.4089 27.6124Z" fill="white"/>
</g>
<defs>
<clipPath id="clip0_520_8937">
<rect width="39" height="39" fill="white"/>
</clipPath>
</defs>
</svg>
